<?xml version="1.0" standalone="no"?>
<!DOCTYPE svg PUBLIC "-//W3C//DTD SVG 20010904//EN"
 "http://www.w3.org/TR/2001/REC-SVG-20010904/DTD/svg10.dtd">
<svg version="1.0" xmlns="http://www.w3.org/2000/svg"
 width="512.000000pt" height="512.000000pt" viewBox="0 0 512.000000 512.000000"
 preserveAspectRatio="xMidYMid meet">

<g transform="translate(0.000000,512.000000) scale(0.100000,-0.100000)"
fill="#000000" stroke="none">
<path d="M2473 5042 l-133 -76 0 -56 c0 -55 0 -55 44 -79 109 -57 256 -209
256 -263 0 -88 -87 -182 -204 -221 -57 -19 -80 -22 -51 -5 19 11 19 11 0 19
-11 4 -32 8 -47 8 -16 1 -28 5 -28 10 0 5 12 11 28 14 38 8 93 47 118 85 26
38 31 125 9 158 -7 11 -54 37 -104 58 -60 25 -100 48 -119 71 l-29 33 -92 -9
c-50 -5 -99 -13 -110 -17 -10 -4 -146 -81 -302 -171 l-284 -163 -35 -60 c-44
-76 -117 -142 -178 -162 -26 -8 -98 -25 -160 -37 l-113 -22 -257 -148 -257
-147 -3 -871 -2 -871 -31 0 c-50 0 -313 -52 -325 -64 -21 -21 -58 -190 -59
-266 0 -114 14 -209 34 -226 23 -20 164 -79 283 -117 54 -18 98 -37 98 -43 0
-7 72 -53 161 -104 l161 -93 -6 -36 c-16 -88 -18 -182 -6 -226 14 -51 39 -68
175 -118 163 -59 249 -71 325 -43 32 12 39 11 77 -11 47 -27 110 -33 146 -14
23 12 35 8 152 -54 108 -57 136 -68 190 -73 35 -2 79 -2 99 2 l36 7 0 322 c1
224 4 317 11 304 5 -9 16 -17 23 -17 7 0 22 -9 34 -20 l22 -21 2 23 c5 78 16
-215 17 -470 l1 -302 39 -38 c21 -20 78 -60 125 -87 130 -75 122 -66 108 -112
-25 -84 -18 -106 50 -167 l63 -56 137 0 137 0 105 76 c58 41 106 81 106 87 0
7 -7 33 -15 60 l-14 47 102 49 c56 27 114 53 129 56 23 6 28 15 38 58 34 162
140 256 311 274 55 5 63 4 118 -31 73 -45 125 -48 169 -11 27 22 39 25 115 25
69 0 111 7 222 39 75 22 139 42 142 44 2 3 0 48 -6 101 -13 117 -14 169 -2
161 5 -3 16 2 25 10 13 14 16 12 20 -17 3 -18 7 -68 10 -111 2 -44 6 -81 8
-83 2 -1 22 -6 43 -9 37 -6 44 -3 89 36 l49 43 -7 152 c-6 152 -6 153 16 160
13 3 86 43 163 88 l140 81 90 0 c107 0 147 17 214 90 l44 47 -6 62 c-19 201
-164 338 -301 286 l-26 -10 0 998 0 997 -560 323 -560 323 -82 2 c-46 1 -109
-2 -140 -7 l-58 -9 0 89 0 89 -347 200 c-191 110 -367 212 -392 226 l-46 26
-132 -75z m-605 -739 c-11 -22 -18 -52 -16 -70 5 -42 1 -42 -18 2 -13 31 -13
39 1 64 13 26 27 38 46 40 4 1 -2 -16 -13 -36z m1109 18 c26 -12 52 -35 70
-62 25 -38 28 -53 31 -138 2 -53 9 -102 15 -110 18 -21 85 -6 136 30 28 20 56
32 73 31 39 -3 134 35 173 69 49 43 130 36 130 -11 0 -19 6 -26 23 -28 35 -5
58 6 44 20 -24 24 -11 28 26 9 65 -34 118 -88 155 -159 21 -39 37 -76 37 -83
0 -28 -81 -177 -119 -221 -56 -63 -74 -108 -65 -166 9 -67 45 -117 117 -162
118 -74 107 -55 107 -195 0 -138 1 -136 -86 -180 -21 -11 -40 -23 -42 -27 -2
-5 -8 -8 -13 -8 -5 0 -9 68 -9 155 l0 154 -51 15 c-28 9 -58 24 -66 33 -20 27
-69 123 -83 166 -9 30 -16 37 -29 31 -166 -75 -369 -102 -510 -69 -97 23 -157
61 -256 160 -137 138 -156 150 -230 149 -83 -1 -184 -49 -286 -137 -109 -94
-111 -122 -17 -197 50 -39 133 -129 165 -176 21 -33 -7 -93 -72 -153 l-54 -48
-53 9 c-67 11 -151 2 -178 -20 -21 -18 -21 -17 -30 -317 -2 -44 -5 -68 -7 -52
-3 20 -14 32 -41 44 -20 9 -40 15 -44 15 -5 -1 -8 73 -8 164 l0 167 49 49 c39
39 54 48 71 43 16 -5 23 -2 26 12 3 11 23 30 45 44 22 13 42 33 44 44 11 59
13 100 5 115 -5 10 -60 46 -122 81 -62 34 -178 103 -258 152 -290 181 -308
185 -460 97 -52 -30 -104 -63 -115 -73 -11 -10 -31 -25 -45 -32 -14 -7 -36
-25 -50 -40 -25 -26 -25 -28 -21 -176 2 -105 0 -149 -8 -149 -6 0 -11 5 -11
10 0 6 -6 10 -14 10 -8 0 -22 7 -30 16 -13 13 -16 43 -16 177 l0 161 41 62
c22 34 56 73 75 86 18 12 34 31 34 41 0 33 61 83 122 101 65 18 212 21 286 5
53 -11 158 -69 155 -85 -1 -5 39 -25 88 -44 83 -32 109 -50 74 -50 -20 0 -29
-43 -15 -70 11 -21 18 -22 79 -18 86 6 162 46 259 134 73 67 123 93 221 119
90 23 135 19 201 -16 57 -30 243 -172 328 -251 65 -60 99 -70 232 -71 135 -1
219 17 328 69 130 63 271 222 260 295 -5 34 -25 34 -33 -1 -8 -36 -68 -119
-110 -152 l-30 -23 27 35 c69 91 85 182 46 260 -26 51 -66 77 -130 86 -66 9
-139 -16 -245 -84 -106 -68 -163 -87 -231 -78 -101 13 -131 69 -106 198 19 98
13 140 -24 169 -59 46 -220 6 -309 -77 -20 -19 -34 -37 -31 -40 3 -3 42 13 87
35 44 23 83 41 87 41 3 0 -50 -37 -118 -82 -220 -146 -350 -191 -553 -192
-103 0 -128 3 -178 23 -68 27 -168 115 -199 174 -18 36 -19 45 -8 81 l12 41
18 -56 c37 -121 111 -174 265 -191 162 -17 283 23 513 170 127 82 141 89 207
113 68 25 177 25 232 0z m-74 -60 c14 -6 28 -19 32 -31 10 -30 -5 -127 -16
-109 -5 8 -9 23 -9 34 0 11 -5 37 -11 58 -9 33 -14 37 -42 38 -27 0 -29 2 -12
9 27 11 30 12 58 1z m1128 -2091 c43 0 71 -49 67 -116 -3 -47 0 -54 41 -100
65 -73 88 -127 96 -221 l7 -80 -60 -37 c-33 -20 -62 -36 -66 -36 -3 0 -6 23
-6 51 0 96 -17 136 -76 180 -56 41 -91 49 -101 24 -7 -21 -113 -73 -135 -67
-12 2 -18 13 -18 33 0 22 -6 30 -24 35 -14 3 -32 15 -42 25 -17 19 -16 21 24
62 33 33 42 50 42 77 0 19 4 40 8 45 10 15 72 47 72 39 0 -5 13 13 29 38 33
52 44 59 85 53 16 -3 42 -5 57 -5z m-2975 -395 c12 -8 24 -12 27 -9 3 3 8 -9
12 -27 8 -45 2 -548 -6 -529 -6 12 -34 237 -65 523 -7 60 -2 67 32 42z"/>
<path d="M2306 4791 c-12 -18 13 -60 39 -67 56 -14 73 20 29 55 -28 22 -59 27
-68 12z"/>
<path d="M2460 4704 c0 -20 47 -82 73 -95 47 -26 47 38 1 84 -30 30 -74 36
-74 11z"/>
</g>
</svg>
